# xmcd
#
# Track frame offsets: 
#        150
#        17871
#        54168
#        76506
#        141104
#        178619
#        200479
#        244956
#        271546
#        296596
#
# Disc length: 4313 seconds
#
# Revision: 0
# Processed by: cddbd v1.5.2PL0 Copyright (c) Steve Scherf et al.
# Submitted via: ExactAudioCopy v1.0b1
#
DISCID=8010d70a
DTITLE=Wild Out West Vol. 2 - Mike Garson Trio
DYEAR=2012
DGENRE=Instrumental
TTITLE0=Nardis (Alternate Take)
TTITLE1=Searching
TTITLE2=My Foolish Heart
TTITLE3=I Love You
TTITLE4=Lullaby for Our Daughters (Alternate Take)
TTITLE5=Jennifer
TTITLE6=Hello Young Lovers
TTITLE7=God Speaks For
TTITLE8=Song for Bill
TTITLE9=Tones for Joan's Bones (Alternate Take)
EXTD=
EXTT0=
EXTT1=
EXTT2=
EXTT3=
EXTT4=
EXTT5=
EXTT6=
EXTT7=
EXTT8=
EXTT9=
PLAYORDER=
